<?xml version="1.0" standalone="no"?>
<!DOCTYPE svg PUBLIC "-//W3C//DTD SVG 1.1//EN" "http://www.w3.org/Graphics/SVG/1.1/DTD/svg11.dtd" >
<svg xmlns="http://www.w3.org/2000/svg">
<metadata>
This is a custom SVG webfont generated by Font Squirrel.
Copyright   : Rothman font X 1991 by D Rakowski All Rights Reserved
</metadata>
<defs>
<font id="webfontgXqFWNjD" horiz-adv-x="364" >
<font-face units-per-em="2048" ascent="1638" descent="-410" />
<missing-glyph horiz-adv-x="280" />
<glyph unicode=" "  horiz-adv-x="280" />
<glyph unicode="&#x09;" horiz-adv-x="280" />
<glyph unicode="&#xa0;" horiz-adv-x="280" />
<glyph unicode="!" horiz-adv-x="227" d="M53 20v111h92v-111h-92zM63 1733h76l-20 -1411h-35z" />
<glyph unicode="&#x22;" d="M57 1516v110q4 4 23 4q14 0 18 12l-41 175l31 -7q4 -18 38 -104t34 -137q0 -29 -8 -53h-95zM211 1516v110q6 4 25 4q14 0 16 12l-41 175l33 -7q6 -25 37.5 -110.5t31.5 -132.5q0 -23 -6 -51h-96z" />
<glyph unicode="$" horiz-adv-x="428" d="M57 897v55q0 29 2 58h72q0 -74 1 -149t12.5 -119t48.5 -44v298q0 148 4 155q-68 59 -104 138t-36 171q0 41 11 92q10 29 23 54.5t50 38.5q8 10 20.5 16t31.5 2v127h32v-127q43 0 79 -16.5t48.5 -49t14.5 -60.5t2 -75v-82h-74q0 25 3 71t3 48q0 55 -14.5 89t-57.5 48v-399 q90 -104 108.5 -131t27.5 -70q0 -35 5 -96t5 -76q0 -66 -16.5 -106.5t-67.5 -65.5l-62 -18v-211h-30v207q-66 18 -87.5 27.5t-32.5 43t-16.5 70.5t-5.5 86zM137 1460q0 -51 12.5 -95t43.5 -79v340q-18 4 -37 -24q-6 -29 -12.5 -71t-6.5 -71zM231 700q16 2 33 15.5t21 29.5 q0 23 2 76t2 80q0 66 -12.5 115t-45.5 82v-398z" />
<glyph unicode="&#x26;" horiz-adv-x="518" d="M12 111l2 860q0 61 56 90q23 8 39 12t20 19l-62 24q-26 10 -38 35l-13 59v408q0 45 18.5 80t59.5 49q47 18 92 18q61 0 121 -39q25 -27 32 -59.5t7 -79.5v-37q0 -39 2 -110.5t2 -102.5q0 -78 -4 -104.5t-18.5 -64.5t-45 -53l-59.5 -28l60 -24q31 -12 43 -41l16 -76 q0 -154 -5 -384t-5 -263l12 -8l88 135q14 4 19.5 -13.5t7.5 -19.5q-4 -20 -27.5 -52t-35.5 -51l-26 -46q-15 -27 -16 -49q0 -25 17 -43q8 -16 35.5 -31t37.5 -27q-8 -27 -8 -65q-39 -6 -72.5 14t-60.5 57q-16 -2 -30.5 -25.5t-22.5 -29.5q-31 -47 -98 -47q-18 0 -47 4 t-61 34t-32 75zM94 106q0 -31 15.5 -39t48.5 -8q29 -2 49 14.5t37 45.5q18 25 18 53q0 16 -10 37l2 774l-14 45q-8 18 -23.5 25.5t-40.5 7.5h-20q-27 -8 -41.5 -30.5t-14.5 -49.5zM109 1163q10 -20 21 -35.5t40 -7.5q31 6 53.5 20.5t28.5 39.5v250q0 127 2 258 q-8 27 -34.5 39t-57.5 6q-27 -4 -35 -19.5t-18 -42.5v-508z" />
<glyph unicode="'" horiz-adv-x="182" d="M57 1516v110q4 4 23 4q14 0 18 12l-41 175l31 -7q4 -18 38 -104t34 -137q0 -29 -8 -53h-95z" />
<glyph unicode="," horiz-adv-x="200" d="M41 39q0 25 2 45l4 39h90q8 -33 8 -70q0 -53 -24 -115l-47 -122h-27l29 107q14 54 10 79q-45 0 -45 37z" />
<glyph unicode="-" d="M53 885v78h258v-78h-258z" />
<glyph unicode="." horiz-adv-x="200" d="M45 0v127h107v-127h-107z" />
<glyph unicode="0" horiz-adv-x="380" d="M18 209v1448q0 78 51.5 121t123.5 43q68 0 115.5 -42t47.5 -120v-1446q0 -102 -51 -158.5t-119 -56.5t-118 55.5t-50 155.5zM109 209q0 -74 22.5 -116t54.5 -42q33 0 55.5 42t22.5 124v1442q0 55 -23.5 87t-54.5 32t-54 -32t-23 -89v-1448z" />
<glyph unicode="1" horiz-adv-x="219" d="M23 1714v49l178 58v-1821h-82v1735z" />
<glyph unicode="2" horiz-adv-x="385" d="M29 1284v438q0 47 47 73t112 26q68 0 114 -18.5t46 -63.5v-617q0 -131 -119.5 -374.5t-119.5 -331.5v-357h182v306h74v-365h-330v414q0 84 59 221l119 273q59 136 59 210v578q0 84 -75 84q-43 0 -71 -18.5t-28 -69.5v-408h-69z" />
<glyph unicode="3" horiz-adv-x="387" d="M25 98v488h84v-492q0 -29 20.5 -50t63.5 -21q35 0 63.5 24.5t28.5 58.5v742q0 66 -55.5 84t-139.5 18v45l123 13q74 16 74 79v609q0 90 -84 90q-45 0 -69.5 -20.5t-24.5 -67.5v-408h-72v404q0 70 49 97.5t119 27.5q63 0 106 -27t43 -96v-611q0 -27 -35.5 -68.5 t-58.5 -41.5q29 -4 59.5 -42t30.5 -85v-748q0 -51 -47 -75.5t-110 -24.5q-92 0 -130 26.5t-38 71.5z" />
<glyph unicode="4" horiz-adv-x="468" d="M20 547l295 1274h33v-1198h101v-74h-101v-549h-82v547h-246zM80 621h186v856z" />
<glyph unicode="5" horiz-adv-x="374" d="M16 129v604h82v-604q0 -66 16.5 -84t55.5 -18q47 0 72.5 20.5t25.5 87.5v1014q0 70 -26.5 98.5t-73.5 28.5q-37 0 -79 -16.5t-66 -32.5v594h290v-45h-215v-482q16 6 46 10.5t46 4.5q66 0 112 -35t46 -127v-1012q0 -72 -57.5 -103.5t-118.5 -31.5q-63 0 -109.5 23.5 t-46.5 105.5z" />
<glyph unicode="6" horiz-adv-x="382" d="M20 139v1581q0 55 48.5 78t117.5 23q98 0 132 -26t34 -75v-417h-86v419q0 39 -21.5 56.5t-56.5 17.5q-31 0 -52 -21.5t-21 -52.5v-753q18 14 48 25.5t62 11.5q59 0 99.5 -47.5t40.5 -159.5v-652q0 -63 -45.5 -105t-135.5 -42q-61 0 -112.5 30.5t-51.5 108.5zM115 139 q0 -57 17.5 -78.5t53.5 -21.5q86 0 86 104v656q0 70 -23.5 107.5t-55.5 37.5q-31 0 -54.5 -37t-23.5 -102v-666z" />
<glyph unicode="7" horiz-adv-x="376" d="M18 1602v219h344l-200 -1821h-94l219 1776h-209v-174h-60z" />
<glyph unicode="8" horiz-adv-x="380" d="M27 160v696q0 47 46 79t83 36q-63 6 -96 38.5t-33 80.5v639q0 47 52 69.5t120 22.5q59 0 110 -27t51 -72v-624q0 -59 -42 -93t-70 -30q35 -8 73.5 -40t38.5 -75v-700q0 -82 -55 -121t-115 -39q-61 0 -112 34t-51 126zM119 156q0 -45 20.5 -81t50.5 -36q37 0 63 38t26 83 v698q0 37 -25 55.5t-57 18.5q-31 0 -54.5 -19.5t-23.5 -54.5v-702zM119 1094q0 -41 23.5 -64.5t58.5 -23.5q33 0 55.5 22.5t22.5 65.5v630q0 39 -24 55.5t-56 16.5q-37 0 -58.5 -14.5t-21.5 -52.5v-635z" />
<glyph unicode="9" horiz-adv-x="382" d="M20 1022v651q0 63 45.5 105.5t135.5 42.5q59 0 111.5 -31t52.5 -109v-1581q0 -53 -49.5 -76.5t-116.5 -23.5q-98 0 -132 25.5t-34 74.5v418h86v-420q0 -39 21.5 -56t56.5 -17q31 0 52 21.5t21 51.5v754q-18 -14 -49 -25.5t-63 -11.5q-59 0 -98.5 46t-39.5 161zM111 1022 q0 -72 23.5 -110t58.5 -38q31 0 54 37t23 105v665q0 57 -17 79t-54 22q-45 0 -66.5 -23.5t-21.5 -81.5v-655z" />
<glyph unicode=":" horiz-adv-x="208" d="M43 0v127h107v-127h-107zM43 909v129h107v-129h-107z" />
<glyph unicode=";" horiz-adv-x="200" d="M41 39q0 25 2 45l4 39h90q8 -33 8 -70q0 -53 -24 -115l-47 -122h-27l29 107q14 54 10 79q-45 0 -45 37zM43 909v129h107v-129h-107z" />
<glyph unicode="?" d="M27 1292v420q0 51 44 80t107 29q61 0 104.5 -30t43.5 -85v-715q0 -115 -73 -289t-73 -348h-37q0 178 60.5 353.5t60.5 283.5v713q0 47 -25.5 72.5t-62.5 25.5q-33 0 -56.5 -23.5t-23.5 -66.5v-420h-69zM123 70v96h80v-96h-80z" />
<glyph unicode="A" horiz-adv-x="403" d="M29 0v1714q0 57 53 84t125 27q66 0 115 -26.5t49 -84.5v-1714h-84v930h-170v-930h-88zM119 979h168v725q0 29 -29 51.5t-57 22.5q-33 0 -57.5 -22.5t-24.5 -55.5v-721z" />
<glyph unicode="B" horiz-adv-x="395" d="M29 0v1821h243q35 0 54.5 -17.5t19.5 -68.5v-625q0 -63 -27.5 -100t-74.5 -43q59 -16 84.5 -49t25.5 -91v-669q0 -63 -21.5 -110.5t-62.5 -47.5h-241zM115 999h26q47 0 80 6.5t33 24.5v717q0 20 -28.5 27.5t-71.5 7.5h-39v-783zM117 49q57 0 101 9.5t44 41.5v781 q0 37 -31.5 48t-87.5 11h-26v-891z" />
<glyph unicode="C" horiz-adv-x="391" d="M43 119v1614q0 47 44 67.5t112 20.5q59 0 108 -20.5t49 -65.5v-451h-69v449q0 33 -24.5 45t-63.5 16q-25 0 -51.5 -20.5t-26.5 -47.5v-1622q0 -33 25.5 -54t58.5 -21q27 0 52.5 23.5t25.5 53.5v469h73v-464q0 -51 -47 -81t-106 -30q-72 0 -116 24.5t-44 94.5z" />
<glyph unicode="D" horiz-adv-x="387" d="M27 -2v1821h41q23 0 51 2q96 0 164.5 -19.5t68.5 -75.5l2 -1640q0 -66 -94 -77t-174 -11h-59zM106 35q68 0 116 14t48 86l-2 1583q0 41 -35.5 59.5t-126.5 18.5v-1761z" />
<glyph unicode="E" horiz-adv-x="290" d="M25 0v1821h229v-52h-150v-768h150v-47h-150v-905h170v-49h-249z" />
<glyph unicode="F" horiz-adv-x="274" d="M20 0v1821h242v-56h-160v-766h142v-61h-142v-938h-82z" />
<glyph unicode="G" horiz-adv-x="387" d="M25 178v1514q0 72 56 99.5t118 27.5q63 0 108 -27t45 -100v-402h-73v402q0 92 -78 92q-39 0 -69 -25.5t-30 -77.5v-1544q0 -41 32 -80t59 -39q37 0 65.5 39t28.5 84v713h-111v35h193v-713q0 -68 -42 -123t-130 -55q-92 0 -132 49t-40 131z" />
<glyph unicode="H" horiz-adv-x="389" d="M16 0l2 1821h86v-860h170v860h76v-1821h-76v936h-170v-936h-88z" />
<glyph unicode="I" horiz-adv-x="163" d="M37 0v1821h84v-1821h-84z" />
<glyph unicode="J" horiz-adv-x="370" d="M18 145v658h72v-662q0 -57 26.5 -89t61.5 -32q37 0 65.5 35t28.5 97v1669h72v-1661q0 -92 -52 -127t-114 -35q-57 0 -108.5 32.5t-51.5 114.5z" />
<glyph unicode="K" horiz-adv-x="413" d="M18 0v1821h86v-813l19 -7l168 820h57l-164 -793l213 -1028h-86l-190 950l-15 8v-958h-88z" />
<glyph unicode="L" horiz-adv-x="288" d="M20 0v1821h89v-1778h165v-43h-254z" />
<glyph unicode="M" horiz-adv-x="520" d="M27 0v1821h69l168 -1276l162 1276h70v-1821h-86v1270l-131 -1030h-27l-137 1007v-1247h-88z" />
<glyph unicode="N" horiz-adv-x="380" d="M25 0v1821h63l201 -1205v1205h73v-1821h-79v377l-177 981v-1358h-81z" />
<glyph unicode="O" horiz-adv-x="380" d="M20 182v1518q0 63 47.5 92t122.5 29q72 0 116 -24.5t44 -94.5v-1520q0 -102 -46 -143t-116 -41t-119 36.5t-49 147.5zM109 182q0 -63 23.5 -104t55.5 -41q33 0 54.5 38t21.5 105v1520q0 98 -74 98q-82 0 -81 -100v-1516z" />
<glyph unicode="P" horiz-adv-x="385" d="M29 0v1821h49q27 0 55 2q106 0 166.5 -20.5t60.5 -88.5v-983q0 -74 -59 -97.5t-143 -23.5h-41v-610h-88zM117 657q78 0 117.5 11.5t39.5 74.5v918q0 66 -29.5 85t-82.5 19h-45v-1108z" />
<glyph unicode="Q" horiz-adv-x="442" d="M29 129v1550q0 78 43 108t121 30q74 0 112.5 -30t38.5 -106v-1554q4 -4 40 -45t36 -66q0 -16 -8 -30q-10 6 -38 35.5t-50 31.5q-23 -33 -45.5 -42t-69.5 -9q-10 -1 -21 -1q-48 0 -98 23q-61 27 -61 105zM115 164q0 -45 20.5 -79t61.5 -38q25 0 47 17.5t24 46.5 q-6 8 -57 53t-51 82q0 10 6 26l100 -73v1487q0 100 -73 100q-41 0 -59.5 -22.5t-18.5 -82.5v-1517z" />
<glyph unicode="R" horiz-adv-x="382" d="M20 0v1821q16 0 60.5 2t52.5 2q119 0 163 -33t44 -88v-666q0 -51 -20.5 -61t-86.5 -27q53 -10 84 -23.5t31 -47.5v-875q-2 -6 -35 -6h-51v881q0 27 -31.5 37t-78.5 10q-37 -2 -50 -2v-924h-82zM104 975h25q61 0 96 14.5t35 67.5v649q0 41 -31.5 54.5t-85.5 13.5h-39v-799 z" />
<glyph unicode="S" horiz-adv-x="370" d="M20 1364v358q0 55 46.5 77t119.5 22q80 0 119 -20.5t39 -74.5v-438h-76v434q0 33 -23.5 54.5t-58.5 21.5q-37 0 -62.5 -23.5t-25.5 -56.5v-352q0 -104 64 -246l123 -239q63 -123 63 -191v-567q0 -59 -48 -92t-116 -33q-66 0 -110.5 29.5t-44.5 97.5v436h82v-438 q0 -37 19.5 -63.5t53.5 -26.5q88 0 88 94v565q0 23 -126 282t-126 390z" />
<glyph unicode="T" horiz-adv-x="380" d="M25 1780v41h340v-41h-123v-1780h-86v1780h-131z" />
<glyph unicode="U" horiz-adv-x="374" d="M23 164v1657h83v-1657q0 -68 16.5 -103.5t63.5 -35.5q49 0 68.5 38.5t19.5 104.5v1653h76v-1653q0 -94 -43 -132t-121 -38q-72 0 -117.5 40t-45.5 126z" />
<glyph unicode="V" horiz-adv-x="393" d="M18 1821h86l101 -1397l129 1397h43l-180 -1821h-31z" />
<glyph unicode="W" horiz-adv-x="544" d="M25 1821h84l36 -1153l136 1095l133 -1091l53 1149h51l-102 -1821h-25l-129 1214l-153 -1214h-29z" />
<glyph unicode="X" horiz-adv-x="401" d="M14 0l146 913l-135 908h92l96 -703l113 703h43l-117 -858l131 -963h-84l-106 766l-127 -766h-52z" />
<glyph unicode="Y" horiz-adv-x="411" d="M18 1821h91l116 -969l125 969h43l-153 -1112v-709h-88v709z" />
<glyph unicode="Z" horiz-adv-x="366" d="M12 0l250 1784h-203v37h289l-242 -1782h230v-39h-324z" />
<glyph unicode="a" horiz-adv-x="403" d="M29 0v858q0 29 52 42t126 13q66 0 115 -13t49 -42v-858h-84v467h-170v-467h-88zM119 489h168v365q0 14 -29 24.5t-57 10.5q-33 0 -57.5 -10.5t-24.5 -26.5v-363z" />
<glyph unicode="b" horiz-adv-x="395" d="M29 0v909h243q37 0 55.5 -8t18.5 -35v-311q0 -31 -28.5 -50.5t-73.5 -19.5q68 -14 89 -27.5t21 -43.5v-334q0 -33 -21.5 -56.5t-62.5 -23.5h-241zM115 500h26q47 0 80 3t33 13v358q0 14 -48 15.5t-91 3.5v-393zM117 25q68 0 106.5 4t38.5 20v393q0 18 -28.5 23.5 t-90.5 5.5h-26v-446z" />
<glyph unicode="c" horiz-adv-x="391" d="M43 59v807q0 25 43 34t113 9q84 0 120.5 -11t36.5 -32v-225h-69v225q0 14 -29 22.5t-59 8.5q-27 0 -52.5 -9t-25.5 -24v-811q0 -16 24.5 -26.5t59.5 -10.5q29 0 53.5 11.5t24.5 27.5v234h73v-232q0 -27 -46 -42t-107 -15q-70 0 -115 12t-45 47z" />
<glyph unicode="d" horiz-adv-x="387" d="M27 -2v911h42q24 0 52 2q96 0 164.5 -9t68.5 -38v-821q0 -31 -97 -38t-171 -7h-59zM106 18q66 0 115 7.5t49 42.5v792q0 25 -53 32t-111 7v-881z" />
<glyph unicode="e" horiz-adv-x="290" d="M25 0v909h229v-24h-150v-385h150v-23h-150v-452h170v-25h-249z" />
<glyph unicode="f" horiz-adv-x="274" d="M20 0v909h242v-26h-160v-383h142v-31h-142v-469h-82z" />
<glyph unicode="g" horiz-adv-x="387" d="M25 88v758q0 43 68.5 53t105.5 10q66 0 109.5 -13t43.5 -50v-199h-73v199q0 23 -20.5 35t-57.5 12q-41 0 -70 -12.5t-29 -38.5v-774q0 -20 32 -40t63 -20q39 4 64.5 21.5t25.5 40.5v358h-111v18h193v-358q0 -35 -42 -62.5t-130 -27.5q-92 0 -132 24.5t-40 65.5z" />
<glyph unicode="h" horiz-adv-x="389" d="M16 0l2 909h86v-430h170v430h76v-909h-76v469h-170v-469h-88z" />
<glyph unicode="i" horiz-adv-x="163" d="M37 0v909h84v-909h-84z" />
<glyph unicode="j" horiz-adv-x="370" d="M18 74v329h72v-333q0 -27 27.5 -42.5t60.5 -15.5q35 0 64.5 17.5t29.5 48.5v831h72v-829q0 -45 -54 -63.5t-112 -18.5q-55 0 -107.5 17.5t-52.5 58.5z" />
<glyph unicode="k" horiz-adv-x="413" d="M18 0v909h86v-403l19 -6l168 409h57l-164 -395l213 -514h-86l-190 475l-15 4v-479h-88z" />
<glyph unicode="l" horiz-adv-x="288" d="M20 0v909h89v-886h165v-23h-254z" />
<glyph unicode="m" horiz-adv-x="520" d="M27 0v909h69l168 -637l162 637h70v-909h-86v635l-131 -514h-27l-137 502v-623h-88z" />
<glyph unicode="n" horiz-adv-x="380" d="M25 0v909h63l201 -600v600h73v-909h-79v188l-177 492v-680h-81z" />
<glyph unicode="o" horiz-adv-x="380" d="M20 90v762q0 31 47.5 44t122.5 13q70 0 115 -12t45 -45v-762q0 -51 -46 -71.5t-116 -20.5t-119 18.5t-49 73.5zM109 90q0 -31 24.5 -51.5t54.5 -20.5q33 0 54.5 19.5t21.5 52.5v762q0 47 -74 47q-82 0 -81 -51v-758z" />
<glyph unicode="p" horiz-adv-x="385" d="M29 0v909h57q31 0 64 2q100 0 155 -10t55 -43v-491q0 -43 -73.5 -52.5t-169.5 -9.5v-305h-88zM117 330q84 0 120.5 5t36.5 38v458q0 31 -28.5 41.5t-77.5 10.5h-51v-553z" />
<glyph unicode="q" horiz-adv-x="442" d="M29 66v774q0 39 42 53t122 14q74 0 112.5 -14t38.5 -51v-779l40 -21t36 -34q0 -6 -8 -14q-10 2 -38 17.5t-50 15.5q-20 -16 -44 -20.5t-71 -4.5h-25q-55 0 -105 14.5t-50 49.5zM115 82q0 -23 19.5 -40t62.5 -17q25 0 47 9t24 23q-49 20 -85 38t-17 42l100 -37v744 q0 51 -73 51q-78 0 -78 -53v-760z" />
<glyph unicode="r" horiz-adv-x="382" d="M20 0v909h58q31 0 65 2q86 0 141.5 -12t55.5 -45v-336q0 -29 -33 -34t-74 -9q61 -6 88 -11t27 -26v-436q-37 -2 -52 -2t-34 -2v440q0 10 -26.5 17.5t-92.5 7.5h-41v-463h-82zM104 487h25q57 0 94 8.5t37 32.5v326q0 14 -26.5 23.5t-90.5 9.5h-39v-400z" />
<glyph unicode="s" horiz-adv-x="370" d="M20 682v180q0 29 44.5 38t121.5 9q82 0 120 -9t38 -36v-221h-76v219q0 16 -24.5 26.5t-57.5 10.5q-39 0 -63.5 -11t-24.5 -28v-178q0 -66 125 -182.5t125 -153.5v-285q0 -29 -49 -46t-115 -17t-110.5 15.5t-44.5 49.5v220h82v-222q0 -18 19.5 -31.5t53.5 -13.5 q88 0 88 47v283q0 33 -126 146.5t-126 189.5z" />
<glyph unicode="t" horiz-adv-x="380" d="M25 889v20h340v-20h-123v-889h-86v889h-131z" />
<glyph unicode="u" horiz-adv-x="374" d="M23 82v827h83v-827q0 -33 15.5 -50.5t64.5 -17.5t68.5 18.5t19.5 51.5v825h76v-825q0 -47 -44 -66.5t-120 -19.5q-74 0 -118.5 20.5t-44.5 63.5z" />
<glyph unicode="v" horiz-adv-x="393" d="M18 909h86l101 -698l129 698h43l-180 -909h-31z" />
<glyph unicode="w" horiz-adv-x="544" d="M25 909h84l36 -575l136 549l133 -547l53 573h51l-102 -909h-25l-129 608l-153 -608h-29z" />
<glyph unicode="x" horiz-adv-x="401" d="M14 0l146 457l-135 452h92l96 -350l113 350h43l-117 -426l131 -483h-84l-106 385l-127 -385h-52z" />
<glyph unicode="y" horiz-adv-x="411" d="M18 909h91l116 -483l125 483h43l-153 -555v-354h-88v354z" />
<glyph unicode="z" horiz-adv-x="366" d="M12 0l250 893h-203v16h289l-242 -889h230v-20h-324z" />
<glyph unicode="&#xad;" d="M53 885v78h258v-78h-258z" />
<glyph unicode="&#x2000;" horiz-adv-x="911" />
<glyph unicode="&#x2001;" horiz-adv-x="1824" />
<glyph unicode="&#x2002;" horiz-adv-x="911" />
<glyph unicode="&#x2003;" horiz-adv-x="1824" />
<glyph unicode="&#x2004;" horiz-adv-x="608" />
<glyph unicode="&#x2005;" horiz-adv-x="454" />
<glyph unicode="&#x2006;" horiz-adv-x="303" />
<glyph unicode="&#x2007;" horiz-adv-x="303" />
<glyph unicode="&#x2008;" horiz-adv-x="227" />
<glyph unicode="&#x2009;" />
<glyph unicode="&#x200a;" horiz-adv-x="100" />
<glyph unicode="&#x2010;" d="M53 885v78h258v-78h-258z" />
<glyph unicode="&#x2011;" d="M53 885v78h258v-78h-258z" />
<glyph unicode="&#x2012;" d="M53 885v78h258v-78h-258z" />
<glyph unicode="&#x2013;" horiz-adv-x="1024" d="M53 885v78h918v-78h-918z" />
<glyph unicode="&#x2014;" horiz-adv-x="2048" d="M53 885v78h1942v-78h-1942z" />
<glyph unicode="&#x2018;" horiz-adv-x="182" d="M39 1569q0 51 33.5 141t36.5 100l32 7q0 -31 -20.5 -98.5t-20.5 -76.5q2 -12 17 -12q18 0 24 -4v-110h-96q-6 28 -6 53z" />
<glyph unicode="&#x2019;" horiz-adv-x="182" d="M57 1516v110q4 4 23 4q14 0 18 12l-41 175l31 -7q4 -18 38 -104t34 -137q0 -29 -8 -53h-95z" />
<glyph unicode="&#x201c;" horiz-adv-x="354" d="M39 1569q0 51 33.5 141t36.5 100l32 7q0 -31 -20.5 -98.5t-20.5 -76.5q2 -12 17 -12q18 0 24 -4v-110h-96q-6 28 -6 53zM203 1569q0 51 33.5 141t35.5 100l33 7q0 -31 -20.5 -98.5t-20.5 -76.5q2 -12 17 -12q18 0 24 -4v-110h-96q-6 28 -6 53z" />
<glyph unicode="&#x201d;" d="M57 1516v110q4 4 23 4q14 0 18 12l-41 175l31 -7q4 -18 38 -104t34 -137q0 -29 -8 -53h-95zM211 1516v110q6 4 25 4q14 0 16 12l-41 175l33 -7q6 -25 37.5 -110.5t31.5 -132.5q0 -23 -6 -51h-96z" />
<glyph unicode="&#x2026;" horiz-adv-x="602" d="M446 0v127h107v-127h-107zM246 0v127h107v-127h-107zM45 0v127h107v-127h-107z" />
<glyph unicode="&#x202f;" />
<glyph unicode="&#x205f;" horiz-adv-x="454" />
<glyph unicode="&#x2122;" horiz-adv-x="901" d="M408 0v1821h69l168 -1276l162 1276h70v-1821h-86v1270l-131 -1030h-27l-137 1007v-1247h-88zM25 1780v41h340v-41h-123v-1780h-86v1780h-131z" />
<glyph unicode="&#xe000;" horiz-adv-x="910" d="M0 910h910v-910h-910v910z" />
<glyph unicode="&#xfb01;" horiz-adv-x="438" d="M311 0v909h84v-909h-84zM20 0v909h242v-26h-160v-383h142v-31h-142v-469h-82z" />
<glyph unicode="&#xfb02;" horiz-adv-x="563" d="M294 0v909h89v-886h165v-23h-254zM20 0v909h242v-26h-160v-383h142v-31h-142v-469h-82z" />
<glyph unicode="&#xfb03;" horiz-adv-x="712" d="M586 0v909h84v-909h-84zM294 0v909h242v-26h-160v-383h142v-31h-142v-469h-82zM20 0v909h242v-26h-160v-383h142v-31h-142v-469h-82z" />
<glyph unicode="&#xfb04;" horiz-adv-x="837" d="M569 0v909h89v-886h165v-23h-254zM294 0v909h242v-26h-160v-383h142v-31h-142v-469h-82zM20 0v909h242v-26h-160v-383h142v-31h-142v-469h-82z" />
</font>
</defs>
</svg>
