<?xml version="1.0" encoding="UTF-8" standalone="no"?>
<!-- Created with Inkscape (http://www.inkscape.org/) -->

<svg
   xmlns:dc="http://purl.org/dc/elements/1.1/"
   xmlns:cc="http://creativecommons.org/ns#"
   xmlns:rdf="http://www.w3.org/1999/02/22-rdf-syntax-ns#"
   xmlns:svg="http://www.w3.org/2000/svg"
   xmlns="http://www.w3.org/2000/svg"
   xmlns:xlink="http://www.w3.org/1999/xlink"
   xmlns:sodipodi="http://sodipodi.sourceforge.net/DTD/sodipodi-0.dtd"
   xmlns:inkscape="http://www.inkscape.org/namespaces/inkscape"
   width="125"
   height="60"
   id="svg4638"
   version="1.1"
   inkscape:version="0.48.2 r9819"
   sodipodi:docname="sprite.svg"
   inkscape:export-filename="./sprite.png"
   inkscape:export-xdpi="90"
   inkscape:export-ydpi="90">
  <defs
     id="defs4640" />
  <sodipodi:namedview
     id="base"
     pagecolor="#ffffff"
     bordercolor="#666666"
     borderopacity="1.0"
     inkscape:pageopacity="0.0"
     inkscape:pageshadow="2"
     inkscape:zoom="3.0604465"
     inkscape:cx="76.300239"
     inkscape:cy="56.65936"
     inkscape:document-units="px"
     inkscape:current-layer="layer1"
     showgrid="true"
     inkscape:window-width="1280"
     inkscape:window-height="752"
     inkscape:window-x="28"
     inkscape:window-y="0"
     inkscape:window-maximized="0">
    <inkscape:grid
       type="xygrid"
       id="grid4750"
       empspacing="5"
       visible="true"
       enabled="true"
       snapvisiblegridlinesonly="true" />
  </sodipodi:namedview>
  <metadata
     id="metadata4643">
    <rdf:RDF>
      <cc:Work
         rdf:about="">
        <dc:format>image/svg+xml</dc:format>
        <dc:type
           rdf:resource="http://purl.org/dc/dcmitype/StillImage" />
        <dc:title></dc:title>
      </cc:Work>
    </rdf:RDF>
  </metadata>
  <g
     inkscape:label="Layer 1"
     inkscape:groupmode="layer"
     id="layer1"
     transform="translate(0,-992.3622)">
    <text
       xml:space="preserve"
       style="font-size:71.58522034px;font-style:normal;font-variant:normal;font-weight:normal;font-stretch:normal;line-height:125%;letter-spacing:0px;word-spacing:0px;opacity:0.25;fill:#ffffff;fill-opacity:1;stroke:none;font-family:Sans;-inkscape-font-specification:Helvetica"
       id="text3095"
       sodipodi:linespacing="125%"
       inkscape:export-filename="/Users/tristen/Desktop/forsythe/images/slide-two.png"
       inkscape:export-xdpi="90"
       inkscape:export-ydpi="90"><textPath
         xlink:href="#path3104"
         id="textPath3106"><tspan
   style="font-style:normal;font-variant:normal;font-weight:500;font-stretch:normal;fill:#ffffff;font-family:Forsythe;-inkscape-font-specification:Forsythe Medium"
   id="tspan3097">Apples &amp; Peaches</tspan></textPath></text>
    <path
       style="fill:none;stroke:none"
       d="m -260,772.36218 460,-140"
       id="path3104"
       inkscape:connector-curvature="0" />
    <path
       sodipodi:type="arc"
       style="color:#000000;fill:#000000;fill-opacity:1;fill-rule:nonzero;stroke:none;stroke-width:2.54558444;marker:none;visibility:visible;display:inline;overflow:visible;enable-background:accumulate"
       id="path14013"
       sodipodi:cx="10"
       sodipodi:cy="10"
       sodipodi:rx="10"
       sodipodi:ry="10"
       d="M 20,10 C 20,15.522847 15.522847,20 10,20 4.4771525,20 0,15.522847 0,10 0,4.4771525 4.4771525,0 10,0 15.522847,0 20,4.4771525 20,10 z"
       transform="translate(0,927.3622)" />
    <path
       transform="translate(25,927.3622)"
       d="M 20,10 C 20,15.522847 15.522847,20 10,20 4.4771525,20 0,15.522847 0,10 0,4.4771525 4.4771525,0 10,0 15.522847,0 20,4.4771525 20,10 z"
       sodipodi:ry="10"
       sodipodi:rx="10"
       sodipodi:cy="10"
       sodipodi:cx="10"
       id="path14523"
       style="color:#000000;fill:#000000;fill-opacity:1;fill-rule:nonzero;stroke:none;stroke-width:2.54558444;marker:none;visibility:visible;display:inline;overflow:visible;enable-background:accumulate"
       sodipodi:type="arc" />
    <path
       sodipodi:type="arc"
       style="color:#000000;fill:#000000;fill-opacity:1;fill-rule:nonzero;stroke:none;stroke-width:2.54558444;marker:none;visibility:visible;display:inline;overflow:visible;enable-background:accumulate"
       id="path14525"
       sodipodi:cx="10"
       sodipodi:cy="10"
       sodipodi:rx="10"
       sodipodi:ry="10"
       d="M 20,10 C 20,15.522847 15.522847,20 10,20 4.4771525,20 0,15.522847 0,10 0,4.4771525 4.4771525,0 10,0 15.522847,0 20,4.4771525 20,10 z"
       transform="translate(50,927.3622)" />
    <path
       transform="translate(75,927.3622)"
       d="M 20,10 C 20,15.522847 15.522847,20 10,20 4.4771525,20 0,15.522847 0,10 0,4.4771525 4.4771525,0 10,0 15.522847,0 20,4.4771525 20,10 z"
       sodipodi:ry="10"
       sodipodi:rx="10"
       sodipodi:cy="10"
       sodipodi:cx="10"
       id="path14527"
       style="color:#000000;fill:#000000;fill-opacity:1;fill-rule:nonzero;stroke:none;stroke-width:2.54558444;marker:none;visibility:visible;display:inline;overflow:visible;enable-background:accumulate"
       sodipodi:type="arc" />
    <path
       sodipodi:type="arc"
       style="opacity:0.19369369;color:#000000;fill:#000000;fill-opacity:1;fill-rule:nonzero;stroke:none;stroke-width:2.54558444;marker:none;visibility:visible;display:inline;overflow:visible;enable-background:accumulate"
       id="path14529"
       sodipodi:cx="10"
       sodipodi:cy="10"
       sodipodi:rx="10"
       sodipodi:ry="10"
       d="M 20,10 C 20,15.522847 15.522847,20 10,20 4.4771525,20 0,15.522847 0,10 0,4.4771525 4.4771525,0 10,0 15.522847,0 20,4.4771525 20,10 z"
       transform="translate(100,927.3622)" />
    <path
       style="color:#000000;fill:#ffffff;fill-opacity:1;fill-rule:nonzero;stroke:none;stroke-width:1px;marker:none;visibility:visible;display:inline;overflow:visible;enable-background:accumulate"
       d="m 8,932.3622 0,2 1,0 0,8 2,0 0,-10 z"
       id="path4171"
       inkscape:connector-curvature="0"
       sodipodi:nodetypes="ccccccc" />
    <path
       style="fill:#ffffff;fill-opacity:1;stroke:none;display:inline"
       d="m 58,932.3622 0,1.5 3,0 0,2.5 -3,0 0,1.5 3,0 0,3 -3,0 0,1.5 3.5,0 c 1,0 1,-1 1,-1 l 0,-3 -1,-1 1,-1 0,-3 c 0,-1 -1,-1 -1,-1 z"
       id="path4180"
       inkscape:connector-curvature="0"
       sodipodi:nodetypes="cccccccccccccccccc" />
    <path
       inkscape:export-ydpi="90"
       inkscape:export-xdpi="90"
       inkscape:export-filename="/Users/tristen/devseed/mapbox.github.com/images/_source/mapbox-overhaul/developer-docs/renders/docs-landing.png"
       sodipodi:nodetypes="cscscccccssccccccc"
       inkscape:connector-curvature="0"
       id="path4185"
       d="m 36,932.3622 c 0,0 1,0 1,1 l 0,4 c 0,1 0,1 -1,1 l -2.5,0 0,2.5 3.5,0 0,1.5 -4.039184,0 c -0.479472,0 -0.955428,-0.6 -0.956016,-1.08 L 32,937.3622 c -0.0012,-1 1,-1 1,-1 l 2.5,0 0,-1.5 c 0,-1 0,-1 -1,-1 l -2.5,0 0,-1.5 z"
       style="font-size:19.0334568px;font-style:normal;font-variant:normal;font-weight:bold;font-stretch:condensed;line-height:125%;letter-spacing:0px;word-spacing:0px;fill:#ffffff;fill-opacity:1;stroke:none;display:inline;font-family:Swis721 Cn BT;-inkscape-font-specification:Swis721 Cn BT Bold Condensed" />
    <path
       style="fill:#ffffff;fill-opacity:1;stroke:none;display:inline"
       d="m 82,932.3622 0,6 3.25,0 0,4 1.5,0 0,-10 -1.5,0 0,4.5 -1.75,0 0,-4.5 z"
       id="path4187"
       inkscape:connector-curvature="0"
       sodipodi:nodetypes="ccccccccccc" />
    <path
       inkscape:export-ydpi="90"
       inkscape:export-xdpi="90"
       inkscape:export-filename="/Users/tristen/devseed/mapbox.github.com/images/_source/mapbox-overhaul/developer-docs/renders/docs-landing.png"
       sodipodi:nodetypes="ccssscccsccsssssccccc"
       inkscape:connector-curvature="0"
       id="path4189"
       d="m 108,931.3622 0,5.76 c 0,0.48 0.47947,0.96 0.95895,0.96 l 0.72316,0 c 0.47948,0 0.47948,0 0.47948,0.48 l 0,0.96 0,1.44 0,0.48 c 0,0.48 0,0.48 -0.47948,0.48 l -1.68211,0 0,1.44 2.63731,0 c 0.47948,0 0.95895,-0.48 0.95895,-0.96 l 0,-4.8 c 0,-0.48 -0.47947,-0.96 -0.95895,-0.96 l -0.71361,0 c -0.47943,0 -0.47943,0 -0.47943,-0.48 l -0.004,-3.36 2.16,0 0,-1.44 z"
       style="font-size:19.0334568px;font-style:normal;font-variant:normal;font-weight:bold;font-stretch:condensed;line-height:125%;letter-spacing:0px;word-spacing:0px;fill:#ffffff;fill-opacity:1;stroke:none;display:inline;font-family:Swis721 Cn BT;-inkscape-font-specification:Swis721 Cn BT Bold Condensed" />
    <path
       style="color:#000000;fill:#303030;fill-opacity:1;fill-rule:nonzero;stroke:none;stroke-width:2.54558444;marker:none;visibility:visible;display:inline;overflow:visible;enable-background:accumulate"
       d="m 95,992.3622 c -16.56852,0 -30,13.4319 -30,30 0,16.5681 13.43148,30 30,30 16.56852,0 30,-13.4319 30,-30 0,-16.5681 -13.43148,-30 -30,-30 z m -11.96244,18.2255 c 0.77064,-0.015 2.72592,0.2391 6.11244,2.5491 1.89432,-0.5187 3.98988,-0.824 6,-0.824 1.82688,0 3.6108,0.2085 5.325,0.6366 4.37568,-2.9284 6.3,-2.3248 6.3,-2.3248 1.09656,2.7421 0.71124,4.9227 0.41256,5.8882 1.70976,1.7063 2.73744,3.9086 2.73744,6.7118 0,1.9551 -0.102,3.7261 -0.525,5.2506 l -0.41244,1.1616 0,0.071 c -1.26096,2.8608 -4.04796,4.7973 -9.75,5.3632 l -8.1,0 c -5.34684,-0.577 -8.33808,-2.521 -9.86256,-5.3632 l -0.0744,-0.071 c -0.14925,-0.2948 -0.33,-0.6602 -0.45,-0.9746 l 0,-0.187 c -0.54228,-1.5204 -0.825,-3.3 -0.825,-5.2506 0,-2.583 0.98316,-4.649 2.51256,-6.3 -0.24456,-0.5984 -1.07616,-3.0458 0.22488,-6.3 0,0 0.1176,-0.031 0.37512,-0.036 z M 100.4,1022.0245 c -1.5972,0.018 -3.42876,0.263 -5.36244,0.2632 -1.94244,0 -3.768,-0.2121 -5.36256,-0.2255 -1.59468,-0.015 -2.9634,0.126 -3.975,1.0494 -1.21296,1.1088 -1.91244,2.463 -1.91244,3.9 -2.4e-4,6.0071 5.03412,7.013 11.25,7.013 6.21444,0 11.32488,-0.2538 11.32488,-7.013 2.4e-4,-1.4472 -0.75936,-2.7868 -1.98744,-3.9 -1.01316,-0.9168 -2.3778,-1.1064 -3.975,-1.0871 z m -11.4,3.1507 c 0.86076,0 1.575,1.0083 1.575,2.2494 0,1.2409 -0.71364,2.2506 -1.575,2.2506 -0.86124,0 -1.53756,-1.0097 -1.53756,-2.2506 0,-1.2411 0.67572,-2.2494 1.53756,-2.2494 z m 12.56244,0 c 0.86088,0 1.575,1.0083 1.57512,2.2494 0,1.2409 -0.71364,2.2506 -1.57512,2.2506 -0.86112,0 -1.53744,-1.0097 -1.53744,-2.2506 0,-1.2411 0.67572,-2.2494 1.53744,-2.2494 z"
       id="path69696"
       inkscape:connector-curvature="0"
       sodipodi:nodetypes="sssssccscccscccccccccscccccccccscccsssssscsss" />
    <path
       sodipodi:nodetypes="sssssccccccsscsccscscccccscc"
       inkscape:connector-curvature="0"
       id="path8019"
       d="m 30,992.3622 c -16.568517,0 -30,13.4319 -30,30 0,16.5681 13.431483,30 30,30 16.568517,0 30,-13.4319 30,-30 0,-16.5681 -13.431483,-30 -30,-30 z m 5.7,18.7129 c 1.770363,0 3.3774,0.7343 4.5,1.9126 1.401837,-0.2725 2.710563,-0.7684 3.9,-1.4632 -0.4596,1.4153 -1.429563,2.5885 -2.7,3.3377 1.244637,-0.1455 2.421483,-0.4558 3.525,-0.9376 -0.825237,1.2154 -1.872117,2.2582 -3.075,3.1122 0.02163,0.2605 0.03717,0.5251 0.03717,0.7878 0,8.0069 -6.191886,17.2506 -17.512563,17.2506 -3.475923,0 -6.726237,-1.0185 -9.45,-2.7384 0.4812,0.054 0.965763,0.108 1.462563,0.108 2.8836,0 5.543514,-0.9621 7.65,-2.5871 -2.693163,-0.046 -4.954438,-1.8312 -5.737563,-4.2378 0.375844,0.068 0.765963,0.108 1.162444,0.108 0.561233,0 1.09608,-0.047 1.612556,-0.1872 -2.815676,-0.5563 -4.95,-3.0267 -4.95,-5.9624 0,-0.024 -3.56e-4,-0.048 0,-0.071 0.830045,0.4535 1.765925,0.7173 2.775,0.75 -1.651437,-1.0864 -2.737556,-2.9235 -2.737556,-5.0257 1.19e-4,-1.1099 0.33288,-2.1417 0.862556,-3.0365 3.035524,3.6653 7.559877,6.0467 12.675,6.3 -0.10437,-0.4444 -0.15,-0.8754 -0.15,-1.3506 0,-3.3457 2.751,-6.0745 6.15,-6.0745 z"
       style="color:#000000;fill:#303030;fill-opacity:1;fill-rule:nonzero;stroke:none;stroke-width:2.54558444;marker:none;visibility:visible;display:inline;overflow:visible;enable-background:accumulate" />
  </g>
</svg>
